<svg width="24" height="24" viewBox="0 0 24 24" fill="none" xmlns="http://www.w3.org/2000/svg">
<path d="M18.3279 22.4996C17.4129 22.4996 16.1276 22.1686 14.2029 21.0933C11.8624 19.7808 10.0521 18.5691 7.72432 16.2474C5.47995 14.0044 4.38776 12.5522 2.85917 9.77066C1.13229 6.63003 1.42667 4.98378 1.75573 4.28019C2.1476 3.43925 2.72604 2.93628 3.4737 2.43707C3.89836 2.15883 4.34776 1.92032 4.8162 1.72457C4.86307 1.70441 4.90667 1.68519 4.94557 1.66785C5.1776 1.56332 5.52917 1.40535 5.97448 1.5741C6.27167 1.68566 6.53698 1.91394 6.95229 2.3241C7.80401 3.1641 8.96792 5.03488 9.39729 5.95363C9.68557 6.57285 9.87635 6.9816 9.87682 7.44003C9.87682 7.97675 9.60682 8.39066 9.27917 8.83738C9.21776 8.92128 9.15682 9.00144 9.09776 9.07925C8.74104 9.548 8.66276 9.68347 8.71432 9.92535C8.81885 10.4114 9.59838 11.8585 10.8795 13.1368C12.1606 14.415 13.5659 15.1453 14.0539 15.2494C14.306 15.3033 14.4443 15.2218 14.9281 14.8524C14.9974 14.7994 15.0687 14.7446 15.1432 14.6897C15.6429 14.318 16.0376 14.055 16.5617 14.055H16.5645C17.0206 14.055 17.411 14.2528 18.0579 14.5791C18.9017 15.0047 20.8287 16.1536 21.6739 17.0063C22.0849 17.4207 22.3142 17.685 22.4262 17.9818C22.5949 18.4285 22.436 18.7786 22.3324 19.013C22.3151 19.0519 22.2959 19.0946 22.2757 19.1419C22.0784 19.6095 21.8385 20.058 21.559 20.4816C21.0607 21.2269 20.5559 21.8039 19.7131 22.1963C19.2803 22.401 18.8067 22.5047 18.3279 22.4996Z" fill="black"/>
</svg>
