<svg width="30" height="30" viewBox="0 0 30 30" fill="none" xmlns="http://www.w3.org/2000/svg">
<path d="M8.75 22.5V20M15 22.5V18.75M21.25 22.5V16.25M3.125 15C3.125 9.4025 3.125 6.6025 4.86375 4.86375C6.6025 3.125 9.40125 3.125 15 3.125C20.5975 3.125 23.3975 3.125 25.1362 4.86375C26.875 6.6025 26.875 9.40125 26.875 15C26.875 20.5975 26.875 23.3975 25.1362 25.1362C23.3975 26.875 20.5988 26.875 15 26.875C9.4025 26.875 6.6025 26.875 4.86375 25.1362C3.125 23.3975 3.125 20.5988 3.125 15Z" stroke="black" stroke-width="1.5" stroke-linecap="round" stroke-linejoin="round"/>
<path d="M7.49023 14.3573C10.184 14.4473 16.2927 14.0411 19.7677 8.5261M17.4902 7.85985L19.8352 7.48235C20.1202 7.4461 20.5402 7.67235 20.644 7.9411L21.2627 9.9886" stroke="black" stroke-width="1.5" stroke-linecap="round" stroke-linejoin="round"/>
</svg>
