<svg width="36" height="36" viewBox="0 0 36 36" fill="none" xmlns="http://www.w3.org/2000/svg">
<path d="M6 27C6 25.4087 6.63214 23.8826 7.75736 22.7574C8.88258 21.6321 10.4087 21 12 21H20C21.5913 21 20.5 21 16.5 24.5C15.5 25.375 14.5 25.9087 14.5 27.5C14.5 28.2956 14.6839 28.5587 14.1213 29.1213C13.5587 29.6839 12.7956 30 12 30H9C8.20435 30 7.44129 29.6839 6.87868 29.1213C6.31607 28.5587 6 27.7956 6 27Z" stroke="black" stroke-width="2" stroke-linejoin="round"/>
<path d="M18 15C20.4853 15 22.5 12.9853 22.5 10.5C22.5 8.01472 20.4853 6 18 6C15.5147 6 13.5 8.01472 13.5 10.5C13.5 12.9853 15.5147 15 18 15Z" stroke="black" stroke-width="2"/>
<path d="M17.25 29.75H18.6225L31.995 16.3775L30.6225 15.005L17.25 28.3775V29.75ZM17.01 31C16.7242 31 16.4842 30.9033 16.29 30.71C16.0958 30.5167 15.9992 30.2767 16 29.99V28.69C16 28.4133 16.0542 28.15 16.1625 27.9C16.2708 27.65 16.4163 27.4342 16.5988 27.2525L32.475 11.3588C32.6025 11.2446 32.7437 11.1562 32.8988 11.0937C33.0538 11.0312 33.2154 11 33.3838 11C33.5521 11 33.7146 11.0267 33.8713 11.08C34.0279 11.1333 34.1737 11.2283 34.3088 11.365L35.6425 12.7075C35.78 12.84 35.8742 12.9858 35.925 13.145C35.975 13.3033 36 13.4617 36 13.62C36 13.79 35.9717 13.9525 35.915 14.1075C35.8575 14.2617 35.7667 14.4029 35.6425 14.5312L19.7475 30.4012C19.5667 30.5829 19.3508 30.7279 19.1 30.8363C18.8492 30.9446 18.5858 30.9992 18.31 31H17.01ZM31.2975 15.7025L30.6225 15.005L31.995 16.3775L31.2975 15.7025Z" fill="black"/>
</svg>
