<svg width="70" height="70" viewBox="0 0 70 70" fill="none" xmlns="http://www.w3.org/2000/svg">
<path d="M61.0372 29.1375C41.7581 26.4892 25.1331 40.8042 26.2502 59.7917M18.9585 23.3333C18.9585 24.8804 19.5731 26.3642 20.667 27.4581C21.761 28.5521 23.2447 29.1667 24.7918 29.1667C26.3389 29.1667 27.8227 28.5521 28.9166 27.4581C30.0106 26.3642 30.6252 24.8804 30.6252 23.3333C30.6252 21.7862 30.0106 20.3025 28.9166 19.2085C27.8227 18.1146 26.3389 17.5 24.7918 17.5C23.2447 17.5 21.761 18.1146 20.667 19.2085C19.5731 20.3025 18.9585 21.7862 18.9585 23.3333Z" stroke="white" stroke-width="2" stroke-linecap="round" stroke-linejoin="round"/>
<path d="M8.75 38.1095C16.8583 36.9866 24.1354 40.9037 28.07 47.1512" stroke="white" stroke-width="2" stroke-linecap="round" stroke-linejoin="round"/>
<path d="M8.75 27.4167C8.75 20.8833 8.75 17.6167 10.0217 15.12C11.1402 12.9249 12.9249 11.1402 15.12 10.0217C17.6167 8.75 20.8833 8.75 27.4167 8.75H42.5833C49.1167 8.75 52.3833 8.75 54.88 10.0217C57.0751 11.1402 58.8598 12.9249 59.9783 15.12C61.25 17.6167 61.25 20.8833 61.25 27.4167V42.5833C61.25 49.1167 61.25 52.3833 59.9783 54.88C58.8598 57.0751 57.0751 58.8598 54.88 59.9783C52.3833 61.25 49.1167 61.25 42.5833 61.25H27.4167C20.8833 61.25 17.6167 61.25 15.12 59.9783C12.9249 58.8598 11.1402 57.0751 10.0217 54.88C8.75 52.3833 8.75 49.1167 8.75 42.5833V27.4167Z" stroke="white" stroke-width="2" stroke-linecap="round" stroke-linejoin="round"/>
</svg>
